<svg width="19" height="19" viewBox="0 0 19 19" fill="none" xmlns="http://www.w3.org/2000/svg">
<path d="M13.4009 0.686279H5.21216C2.54708 0.686279 0.378906 2.85443 0.378906 5.51952V13.7084C0.378906 16.3734 2.54708 18.5416 5.21216 18.5416H13.4011C16.0659 18.5416 18.2341 16.3734 18.2341 13.7084V5.51952C18.2341 2.85443 16.0659 0.686279 13.4009 0.686279ZM9.30652 14.4961C6.61446 14.4961 4.42438 12.306 4.42438 9.61389C4.42438 6.92181 6.61446 4.73174 9.30652 4.73174C11.9986 4.73174 14.1888 6.92181 14.1888 9.61389C14.1888 12.306 11.9986 14.4961 9.30652 14.4961ZM14.3054 5.88312C13.5099 5.88312 12.8628 5.23604 12.8628 4.44049C12.8628 3.64495 13.5099 2.99773 14.3054 2.99773C15.101 2.99773 15.7481 3.64495 15.7481 4.44049C15.7481 5.23604 15.101 5.88312 14.3054 5.88312Z" fill="white"/>
<path d="M9.3061 5.77881C7.19133 5.77881 5.4707 7.49932 5.4707 9.61421C5.4707 11.7289 7.19133 13.4496 9.3061 13.4496C11.421 13.4496 13.1414 11.7289 13.1414 9.61421C13.1414 7.49932 11.421 5.77881 9.3061 5.77881Z" fill="white"/>
<path d="M14.306 4.04443C14.0878 4.04443 13.9102 4.22207 13.9102 4.44029C13.9102 4.65854 14.0878 4.83617 14.306 4.83617C14.5243 4.83617 14.7021 4.65866 14.7021 4.44029C14.7021 4.22193 14.5243 4.04443 14.306 4.04443Z" fill="white"/>
</svg>
