<svg width="20" height="11" viewBox="0 0 20 11" fill="none" xmlns="http://www.w3.org/2000/svg">
<path fill-rule="evenodd" clip-rule="evenodd" d="M9.85008 10.9579H10.9654C10.9654 10.9579 11.3023 10.9211 11.4743 10.736C11.6326 10.5663 11.6276 10.2475 11.6276 10.2475C11.6276 10.2475 11.6058 8.75492 12.3004 8.53507C12.9851 8.31863 13.8644 9.97771 14.7964 10.6156C15.501 11.0983 16.0364 10.9925 16.0364 10.9925L18.5285 10.9579C18.5285 10.9579 19.8319 10.8779 19.2138 9.85562C19.1633 9.77194 18.8539 9.09949 17.3612 7.71754C15.7987 6.27117 16.0079 6.50511 17.89 4.00321C19.0364 2.47953 19.4946 1.54929 19.3514 1.15087C19.2148 0.771405 18.3718 0.871718 18.3718 0.871718L15.5662 0.889137C15.5662 0.889137 15.3582 0.860857 15.2039 0.952802C15.0532 1.043 14.9561 1.2532 14.9561 1.2532C14.9561 1.2532 14.5121 2.43228 13.9198 3.43501C12.6705 5.55088 12.1709 5.66256 11.9668 5.53119C11.4918 5.22498 11.6104 4.30108 11.6104 3.6447C11.6104 1.59427 11.9222 0.739322 11.0032 0.518017C10.6982 0.444497 10.4737 0.396 9.69376 0.388155C8.69266 0.377796 7.84532 0.391192 7.36554 0.625632C7.04637 0.781523 6.80015 1.12891 6.9501 1.14886C7.13554 1.17362 7.55552 1.26179 7.7782 1.5642C8.06572 1.95428 8.05558 2.83045 8.05558 2.83045C8.05558 2.83045 8.22074 5.24418 7.66978 5.54406C7.29157 5.74971 6.77279 5.32983 5.65895 3.41026C5.08824 2.42696 4.65734 1.34012 4.65734 1.34012C4.65734 1.34012 4.57427 1.13699 4.42606 1.02835C4.24621 0.896721 3.99492 0.854781 3.99492 0.854781L1.32878 0.872221C1.32878 0.872221 0.928533 0.883344 0.781614 1.0569C0.650907 1.21126 0.771234 1.5306 0.771234 1.5306C0.771234 1.5306 2.85854 6.40101 5.22199 8.8555C7.38911 11.1058 9.85008 10.9579 9.85008 10.9579Z" fill="white"/>
</svg>
