<svg width="21" height="15" viewBox="0 0 21 15" fill="none" xmlns="http://www.w3.org/2000/svg">
<path d="M19.474 1.66979C18.7645 0.82643 17.4547 0.482422 14.9531 0.482422H5.87262C3.31384 0.482422 1.9818 0.848617 1.27502 1.7465C0.585937 2.62193 0.585938 3.91181 0.585938 5.69703V9.09964C0.585938 12.5583 1.40353 14.3142 5.87262 14.3142H14.9531C17.1225 14.3142 18.3245 14.0107 19.1022 13.2664C19.8997 12.5031 20.24 11.2569 20.24 9.09964V5.69703C20.24 3.81436 20.1866 2.51687 19.474 1.66979ZM13.2038 7.8681L9.08047 10.0231C8.98829 10.0713 8.88748 10.0952 8.78679 10.0952C8.67281 10.0952 8.55907 10.0646 8.45833 10.0035C8.26863 9.88859 8.1528 9.683 8.1528 9.46121V5.16497C8.1528 4.94358 8.26832 4.73817 8.45763 4.62316C8.64701 4.50814 8.88254 4.50029 9.07901 4.60236L13.2025 6.74351C13.4123 6.85242 13.544 7.06901 13.5444 7.30529C13.5446 7.54179 13.4135 7.75867 13.2038 7.8681Z" fill="white"/>
</svg>
